<?xml version="1.0" encoding="iso-8859-1"?>
<!-- Uploaded to: SVG Repo, www.svgrepo.com, Generator: SVG Repo Mixer Tools -->
<svg version="1.1" id="Layer_1" xmlns="http://www.w3.org/2000/svg" xmlns:xlink="http://www.w3.org/1999/xlink" 
	 viewBox="0 0 512 512" xml:space="preserve">
<path style="fill:#E6E6E6;" d="M50.462,179.634H32.605v-71.774c0-21.23,17.272-38.503,38.502-38.503s38.503,17.272,38.503,38.503
	v10.777H91.753v-10.777c0-11.384-9.261-20.647-20.645-20.647s-20.647,9.261-20.647,20.647
	C50.462,107.861,50.462,179.634,50.462,179.634z"/>
<rect x="46.486" y="133.41" style="fill:#47A7DD;" width="24.999" height="34.522"/>
<g>
	<polygon style="fill:#E6E6E6;" points="135.392,387.192 87.513,422.226 59.61,442.642 28.183,442.642 44.801,399.156 
		55.908,370.086 	"/>
	<polygon style="fill:#E6E6E6;" points="469.04,442.63 437.625,442.63 390.64,408.251 354.797,382.026 430.685,342.195 
		430.792,342.469 442.137,372.193 	"/>
</g>
<g>
	<path style="fill:#CCCCCC;" d="M55.908,370.086l79.484,17.106l-47.878,35.034c-16.463-3.452-31.201-11.642-42.712-23.07
		L55.908,370.086z"/>
	<path style="fill:#CCCCCC;" d="M442.137,372.193c-14.761,14.928-32.189,27.201-51.497,36.058l-35.843-26.225l75.889-39.831
		l0.107,0.274L442.137,372.193z"/>
</g>
<path style="fill:#E6E6E6;" d="M492.588,199.468v24.903c0,0.631,0,1.25-0.012,1.881c-1,95.626-78.841,172.836-174.693,172.836
	H105.299c-47.438,0-85.888-38.45-85.888-85.888V199.468L492.588,199.468L492.588,199.468z"/>
<path style="fill:#CCCCCC;" d="M362.518,379.45H149.94c-47.438,0-85.894-38.456-85.894-85.894v-94.09H19.408v113.732
	c0,47.438,38.456,85.894,85.894,85.894h212.578c33.727,0,65.216-9.566,91.919-26.12C394.76,377.188,378.904,379.45,362.518,379.45z"
	/>
<path style="fill:#E6E6E6;" d="M492.359,158.801H19.641C8.794,158.801,0,167.595,0,178.443v1.383
	c0,10.847,8.794,19.641,19.641,19.641h472.719c10.847,0,19.641-8.794,19.641-19.641v-1.383
	C512,167.595,503.208,158.801,492.359,158.801z"/>
<g>
	<path style="fill:#CCCCCC;" d="M72.087,179.133L72.087,179.133c0-11.229,9.103-20.332,20.332-20.332H20.332
		C9.103,158.801,0,167.904,0,179.133l0,0c0,11.229,9.103,20.332,20.332,20.332h72.087C81.19,199.466,72.087,190.362,72.087,179.133z
		"/>
	<path style="fill:#CCCCCC;" d="M492.588,199.468v24.903c0,0.631,0,1.25-0.012,1.881H19.411v-26.784H492.588z"/>
</g>
</svg>