<?xml version="1.0" encoding="UTF-8" standalone="no"?> <svg xmlns="http://www.w3.org/2000/svg" viewBox="0 0 48 48"><g id="Bathtub"><path d="M46,23a3,3,0,0,0-3-3H9V8.535a2.536,2.536,0,0,1,4.328-1.793l1.341,1.341a4.938,4.938,0,0,0,1.652,7.033,1,1,0,0,0,1.216-.154l5.457-5.457a1,1,0,0,0,.154-1.216,4.938,4.938,0,0,0-7.071-1.626L14.742,5.328A4.535,4.535,0,0,0,7,8.535V20H5a2.993,2.993,0,0,0-1,5.816V31a10.938,10.938,0,0,0,2.378,6.81L5.4,39.5a3,3,0,0,0,5.194,3l.677-1.166A10.926,10.926,0,0,0,15,42H33a10.926,10.926,0,0,0,3.728-.664L37.4,42.5a3,3,0,1,0,5.2-3l-.975-1.691A10.938,10.938,0,0,0,44,31V25.816A3,3,0,0,0,46,23ZM20.973,8.7,16.73,12.94A3,3,0,0,1,20.973,8.7ZM8.863,41.5a1,1,0,0,1-1.727-1l.683-1.185a10.956,10.956,0,0,0,1.636,1.17Zm31.64.36a1,1,0,0,1-1.369-.364l-.589-1.014a11.008,11.008,0,0,0,1.636-1.17l.681,1.183A1,1,0,0,1,40.5,41.862ZM33,40H15a9.01,9.01,0,0,1-9-9V26H42v5A9.01,9.01,0,0,1,33,40ZM43,24H5a1,1,0,0,1,0-2H43a1,1,0,0,1,0,2Z"/></g></svg>