<svg xmlns="http://www.w3.org/2000/svg" xmlns:xlink="http://www.w3.org/1999/xlink" width="500" zoomAndPan="magnify" viewBox="0 0 375 374.999991" height="500" preserveAspectRatio="xMidYMid meet" version="1.0"><defs><g/><clipPath id="0a3d347c48"><path d="M 55.46875 115.25 L 180.71875 115.25 L 180.71875 260 L 55.46875 260 Z M 55.46875 115.25 " clip-rule="nonzero"/></clipPath><clipPath id="30e6e91e48"><path d="M 148.929688 116 L 168.464844 116 L 168.464844 164.5 L 148.929688 164.5 Z M 148.929688 116 " clip-rule="nonzero"/></clipPath><clipPath id="6bee4a5846"><path d="M 148.929688 154.242188 L 148.929688 117.496094 C 148.929688 117.003906 149.179688 116.542969 149.59375 116.277344 C 150.011719 116.007812 150.53125 115.96875 150.984375 116.167969 L 166.414062 123.097656 C 167.660156 123.660156 168.464844 124.902344 168.464844 126.269531 L 168.464844 163.015625 C 168.464844 163.507812 168.214844 163.96875 167.800781 164.238281 C 167.386719 164.503906 166.863281 164.542969 166.414062 164.34375 L 150.984375 157.414062 C 149.734375 156.851562 148.929688 155.613281 148.929688 154.242188 Z M 148.929688 154.242188 " clip-rule="nonzero"/></clipPath><clipPath id="960d65fb62"><path d="M 89.660156 147.859375 L 146.96875 147.859375 L 146.96875 180.390625 L 89.660156 180.390625 Z M 89.660156 147.859375 " clip-rule="nonzero"/></clipPath><clipPath id="eaca069be8"><path d="M 122.8125 149.941406 L 146.054688 175.40625 C 146.847656 176.277344 147.054688 177.535156 146.578125 178.613281 C 146.101562 179.695312 145.035156 180.390625 143.855469 180.390625 L 92.671875 180.390625 C 91.492188 180.390625 90.421875 179.695312 89.945312 178.613281 C 89.46875 177.535156 89.675781 176.277344 90.472656 175.40625 L 113.710938 149.941406 C 114.878906 148.660156 116.53125 147.933594 118.261719 147.933594 C 119.996094 147.933594 121.644531 148.660156 122.8125 149.941406 Z M 122.8125 149.941406 " clip-rule="nonzero"/></clipPath></defs><rect x="-37.5" width="450" fill="#ffffff" y="-37.499999" height="449.999989" fill-opacity="1"/><rect x="-37.5" width="450" fill="#ffffff" y="-37.499999" height="449.999989" fill-opacity="1"/><g clip-path="url(#0a3d347c48)"><path fill="#071658" d="M 159.101562 259.726562 L 77.003906 259.726562 C 76.300781 259.726562 75.601562 259.691406 74.902344 259.621094 C 74.203125 259.550781 73.507812 259.445312 72.820312 259.308594 C 72.132812 259.171875 71.449219 259 70.777344 258.796875 C 70.105469 258.589844 69.445312 258.355469 68.796875 258.085938 C 68.148438 257.816406 67.515625 257.515625 66.894531 257.183594 C 66.273438 256.851562 65.671875 256.492188 65.089844 256.101562 C 64.503906 255.710938 63.941406 255.292969 63.398438 254.847656 C 62.855469 254.402344 62.335938 253.929688 61.839844 253.433594 C 61.34375 252.9375 60.871094 252.417969 60.425781 251.875 C 59.980469 251.332031 59.5625 250.765625 59.171875 250.183594 C 58.78125 249.597656 58.417969 248.996094 58.089844 248.378906 C 57.757812 247.757812 57.457031 247.125 57.1875 246.476562 C 56.917969 245.828125 56.679688 245.167969 56.476562 244.492188 C 56.273438 243.820312 56.101562 243.140625 55.964844 242.453125 C 55.824219 241.765625 55.722656 241.070312 55.652344 240.371094 C 55.582031 239.671875 55.546875 238.972656 55.546875 238.269531 L 55.546875 180.71875 C 55.542969 179.363281 55.671875 178.019531 55.929688 176.6875 C 56.1875 175.355469 56.570312 174.0625 57.078125 172.804688 C 57.585938 171.550781 58.210938 170.355469 58.949219 169.21875 C 59.691406 168.082031 60.53125 167.027344 61.476562 166.054688 L 105.394531 120.636719 C 105.804688 120.210938 106.234375 119.808594 106.683594 119.425781 C 107.132812 119.046875 107.597656 118.6875 108.082031 118.351562 C 108.570312 118.019531 109.070312 117.707031 109.585938 117.425781 C 110.101562 117.140625 110.632812 116.882812 111.175781 116.652344 C 111.71875 116.421875 112.269531 116.21875 112.832031 116.042969 C 113.394531 115.867188 113.964844 115.71875 114.542969 115.601562 C 115.121094 115.484375 115.703125 115.394531 116.289062 115.335938 C 116.875 115.277344 117.464844 115.25 118.054688 115.25 C 118.644531 115.25 119.230469 115.277344 119.816406 115.335938 C 120.402344 115.394531 120.984375 115.484375 121.5625 115.601562 C 122.140625 115.71875 122.710938 115.867188 123.273438 116.042969 C 123.835938 116.21875 124.390625 116.421875 124.933594 116.652344 C 125.472656 116.882812 126.003906 117.140625 126.519531 117.425781 C 127.035156 117.707031 127.539062 118.019531 128.023438 118.351562 C 128.507812 118.6875 128.976562 119.046875 129.425781 119.425781 C 129.875 119.808594 130.304688 120.210938 130.710938 120.636719 L 178.722656 170.289062 C 179.023438 170.59375 179.292969 170.929688 179.527344 171.289062 C 179.761719 171.652344 179.957031 172.03125 180.117188 172.429688 C 180.277344 172.828125 180.394531 173.242188 180.472656 173.664062 C 180.550781 174.085938 180.585938 174.511719 180.578125 174.941406 C 180.574219 175.375 180.527344 175.796875 180.433594 176.21875 C 180.34375 176.640625 180.214844 177.046875 180.042969 177.441406 C 179.875 177.835938 179.664062 178.210938 179.421875 178.566406 C 179.175781 178.917969 178.898438 179.246094 178.589844 179.542969 C 178.28125 179.84375 177.945312 180.109375 177.582031 180.339844 C 177.222656 180.574219 176.839844 180.769531 176.441406 180.925781 C 176.039062 181.082031 175.628906 181.199219 175.207031 181.277344 C 174.78125 181.351562 174.355469 181.386719 173.925781 181.378906 C 173.496094 181.371094 173.070312 181.320312 172.652344 181.226562 C 172.230469 181.136719 171.824219 181.003906 171.429688 180.832031 C 171.035156 180.65625 170.664062 180.449219 170.308594 180.203125 C 169.957031 179.957031 169.632812 179.675781 169.335938 179.367188 L 121.320312 129.734375 C 121.109375 129.511719 120.878906 129.3125 120.628906 129.136719 C 120.378906 128.960938 120.113281 128.8125 119.832031 128.691406 C 119.550781 128.566406 119.261719 128.476562 118.960938 128.414062 C 118.664062 128.351562 118.359375 128.320312 118.054688 128.320312 C 117.746094 128.320312 117.445312 128.351562 117.144531 128.414062 C 116.84375 128.476562 116.554688 128.566406 116.273438 128.691406 C 115.992188 128.8125 115.726562 128.960938 115.476562 129.136719 C 115.226562 129.3125 114.996094 129.511719 114.789062 129.734375 L 70.867188 175.136719 C 70.140625 175.886719 69.585938 176.746094 69.199219 177.714844 C 68.8125 178.683594 68.621094 179.6875 68.625 180.734375 L 68.625 238.269531 C 68.628906 238.820312 68.683594 239.363281 68.789062 239.90625 C 68.898438 240.445312 69.058594 240.96875 69.269531 241.480469 C 69.480469 241.988281 69.738281 242.472656 70.046875 242.929688 C 70.351562 243.386719 70.699219 243.8125 71.089844 244.203125 C 71.480469 244.59375 71.902344 244.941406 72.359375 245.246094 C 72.820312 245.550781 73.300781 245.8125 73.8125 246.023438 C 74.320312 246.234375 74.84375 246.394531 75.386719 246.5 C 75.925781 246.609375 76.472656 246.664062 77.023438 246.664062 L 159.121094 246.664062 C 159.550781 246.664062 159.972656 246.707031 160.394531 246.789062 C 160.816406 246.875 161.222656 246.996094 161.621094 247.160156 C 162.015625 247.324219 162.390625 247.527344 162.75 247.765625 C 163.105469 248.003906 163.433594 248.273438 163.738281 248.578125 C 164.042969 248.878906 164.3125 249.210938 164.550781 249.566406 C 164.789062 249.921875 164.992188 250.300781 165.15625 250.695312 C 165.320312 251.09375 165.441406 251.5 165.527344 251.921875 C 165.609375 252.339844 165.652344 252.765625 165.652344 253.195312 C 165.652344 253.625 165.609375 254.046875 165.527344 254.46875 C 165.441406 254.890625 165.320312 255.296875 165.15625 255.695312 C 164.992188 256.089844 164.789062 256.464844 164.550781 256.824219 C 164.3125 257.179688 164.042969 257.507812 163.738281 257.8125 C 163.433594 258.117188 163.105469 258.386719 162.75 258.625 C 162.390625 258.863281 162.015625 259.0625 161.621094 259.226562 C 161.222656 259.394531 160.816406 259.515625 160.394531 259.601562 C 159.972656 259.683594 159.550781 259.726562 159.121094 259.726562 Z M 159.101562 259.726562 " fill-opacity="1" fill-rule="nonzero"/></g><g clip-path="url(#30e6e91e48)"><g clip-path="url(#6bee4a5846)"><path fill="#071658" d="M 148.929688 165.265625 L 148.929688 115.28125 L 168.464844 115.28125 L 168.464844 165.265625 Z M 148.929688 165.265625 " fill-opacity="1" fill-rule="nonzero"/></g></g><g clip-path="url(#960d65fb62)"><g clip-path="url(#eaca069be8)"><path fill="#ffb603" d="M 85.921875 144.953125 L 150.566406 144.953125 L 150.566406 180.390625 L 85.921875 180.390625 Z M 85.921875 144.953125 " fill-opacity="1" fill-rule="nonzero"/></g></g><g fill="#071658" fill-opacity="1"><g transform="translate(88.2944, 215.209555)"><g><path d="M 19.828125 -4.09375 C 20.160156 -3.300781 20.328125 -2.726562 20.328125 -2.375 C 20.328125 -1.539062 19.644531 -0.835938 18.28125 -0.265625 C 17.570312 0.046875 17.003906 0.203125 16.578125 0.203125 C 16.148438 0.203125 15.796875 0.0976562 15.515625 -0.109375 C 15.242188 -0.316406 15.046875 -0.535156 14.921875 -0.765625 C 14.703125 -1.179688 13.84375 -3.171875 12.34375 -6.734375 L 11.3125 -6.671875 L 7.15625 -6.671875 L 7.15625 -2.9375 C 7.15625 -2.425781 7.140625 -2.046875 7.109375 -1.796875 C 7.078125 -1.546875 6.972656 -1.253906 6.796875 -0.921875 C 6.492188 -0.328125 5.632812 -0.03125 4.21875 -0.03125 C 2.675781 -0.03125 1.773438 -0.4375 1.515625 -1.25 C 1.378906 -1.625 1.3125 -2.195312 1.3125 -2.96875 L 1.3125 -21.28125 C 1.3125 -21.789062 1.328125 -22.171875 1.359375 -22.421875 C 1.398438 -22.671875 1.507812 -22.960938 1.6875 -23.296875 C 1.988281 -23.890625 2.84375 -24.1875 4.25 -24.1875 L 11.390625 -24.1875 C 13.316406 -24.1875 15.195312 -23.484375 17.03125 -22.078125 C 17.90625 -21.390625 18.628906 -20.460938 19.203125 -19.296875 C 19.773438 -18.140625 20.0625 -16.84375 20.0625 -15.40625 C 20.0625 -12.925781 19.238281 -10.878906 17.59375 -9.265625 C 18.070312 -8.109375 18.816406 -6.382812 19.828125 -4.09375 Z M 7.15625 -12.5 L 11.390625 -12.5 C 12.023438 -12.5 12.660156 -12.738281 13.296875 -13.21875 C 13.929688 -13.707031 14.25 -14.4375 14.25 -15.40625 C 14.25 -16.375 13.929688 -17.101562 13.296875 -17.59375 C 12.660156 -18.09375 12 -18.34375 11.3125 -18.34375 L 7.15625 -18.34375 Z M 7.15625 -12.5 "/></g></g></g><g fill="#071658" fill-opacity="1"><g transform="translate(113.638358, 215.209555)"><g><path d="M 7.15625 -5.84375 L 17.328125 -5.84375 C 17.828125 -5.84375 18.203125 -5.820312 18.453125 -5.78125 C 18.710938 -5.75 19.007812 -5.648438 19.34375 -5.484375 C 19.9375 -5.171875 20.234375 -4.3125 20.234375 -2.90625 C 20.234375 -1.363281 19.828125 -0.460938 19.015625 -0.203125 C 18.640625 -0.0664062 18.066406 0 17.296875 0 L 4.21875 0 C 2.675781 0 1.773438 -0.414062 1.515625 -1.25 C 1.378906 -1.601562 1.3125 -2.164062 1.3125 -2.9375 L 1.3125 -21.28125 C 1.3125 -22.40625 1.519531 -23.171875 1.9375 -23.578125 C 2.363281 -23.984375 3.160156 -24.1875 4.328125 -24.1875 L 17.328125 -24.1875 C 17.828125 -24.1875 18.203125 -24.171875 18.453125 -24.140625 C 18.710938 -24.109375 19.007812 -24.003906 19.34375 -23.828125 C 19.9375 -23.515625 20.234375 -22.65625 20.234375 -21.25 C 20.234375 -19.707031 19.828125 -18.804688 19.015625 -18.546875 C 18.640625 -18.410156 18.066406 -18.34375 17.296875 -18.34375 L 7.15625 -18.34375 L 7.15625 -15.015625 L 13.6875 -15.015625 C 14.195312 -15.015625 14.578125 -15 14.828125 -14.96875 C 15.085938 -14.9375 15.378906 -14.832031 15.703125 -14.65625 C 16.296875 -14.34375 16.59375 -13.484375 16.59375 -12.078125 C 16.59375 -10.535156 16.175781 -9.632812 15.34375 -9.375 C 14.96875 -9.238281 14.394531 -9.171875 13.625 -9.171875 L 7.15625 -9.171875 Z M 7.15625 -5.84375 "/></g></g></g><g fill="#071658" fill-opacity="1"><g transform="translate(139.213315, 215.209555)"><g><path d="M 16.9375 -23.1875 C 17.15625 -23.570312 17.472656 -23.828125 17.890625 -23.953125 C 18.304688 -24.085938 18.828125 -24.15625 19.453125 -24.15625 C 20.078125 -24.15625 20.582031 -24.097656 20.96875 -23.984375 C 21.351562 -23.878906 21.640625 -23.75 21.828125 -23.59375 C 22.015625 -23.4375 22.148438 -23.207031 22.234375 -22.90625 C 22.367188 -22.550781 22.4375 -21.988281 22.4375 -21.21875 L 22.4375 -2.90625 C 22.4375 -2.375 22.421875 -1.988281 22.390625 -1.75 C 22.359375 -1.507812 22.253906 -1.222656 22.078125 -0.890625 C 21.765625 -0.296875 20.90625 0 19.5 0 C 18.644531 0 18.050781 -0.0625 17.71875 -0.1875 C 17.382812 -0.320312 17.109375 -0.535156 16.890625 -0.828125 C 11.941406 -7.421875 8.6875 -11.734375 7.125 -13.765625 L 7.125 -2.90625 C 7.125 -2.375 7.109375 -1.988281 7.078125 -1.75 C 7.046875 -1.507812 6.941406 -1.222656 6.765625 -0.890625 C 6.453125 -0.296875 5.59375 0 4.1875 0 C 2.820312 0 1.988281 -0.296875 1.6875 -0.890625 C 1.507812 -1.222656 1.398438 -1.519531 1.359375 -1.78125 C 1.328125 -2.039062 1.3125 -2.425781 1.3125 -2.9375 L 1.3125 -21.34375 C 1.3125 -22.1875 1.414062 -22.800781 1.625 -23.1875 C 1.84375 -23.570312 2.160156 -23.828125 2.578125 -23.953125 C 2.992188 -24.085938 3.53125 -24.15625 4.1875 -24.15625 C 4.851562 -24.15625 5.378906 -24.09375 5.765625 -23.96875 C 6.148438 -23.851562 6.414062 -23.71875 6.5625 -23.5625 C 6.65625 -23.5 6.910156 -23.210938 7.328125 -22.703125 C 11.960938 -16.390625 15.0625 -12.222656 16.625 -10.203125 L 16.625 -21.34375 C 16.625 -22.1875 16.726562 -22.800781 16.9375 -23.1875 Z M 16.9375 -23.1875 "/></g></g></g><g fill="#071658" fill-opacity="1"><g transform="translate(167.494262, 215.209555)"><g><path d="M 2.90625 -24.21875 L 21.25 -24.21875 C 21.957031 -24.21875 22.472656 -24.132812 22.796875 -23.96875 C 23.128906 -23.8125 23.347656 -23.554688 23.453125 -23.203125 C 23.566406 -22.847656 23.625 -22.382812 23.625 -21.8125 C 23.625 -21.238281 23.566406 -20.78125 23.453125 -20.4375 C 23.347656 -20.101562 23.164062 -19.867188 22.90625 -19.734375 C 22.507812 -19.535156 21.945312 -19.4375 21.21875 -19.4375 L 14.921875 -19.4375 L 14.921875 -2.84375 C 14.921875 -2.332031 14.898438 -1.957031 14.859375 -1.71875 C 14.828125 -1.476562 14.726562 -1.195312 14.5625 -0.875 C 14.40625 -0.550781 14.113281 -0.320312 13.6875 -0.1875 C 13.269531 -0.0625 12.71875 0 12.03125 0 C 11.351562 0 10.8125 -0.0625 10.40625 -0.1875 C 10 -0.320312 9.710938 -0.550781 9.546875 -0.875 C 9.390625 -1.195312 9.289062 -1.484375 9.25 -1.734375 C 9.21875 -1.984375 9.203125 -2.363281 9.203125 -2.875 L 9.203125 -19.4375 L 2.875 -19.4375 C 2.164062 -19.4375 1.644531 -19.519531 1.3125 -19.6875 C 0.988281 -19.851562 0.769531 -20.109375 0.65625 -20.453125 C 0.550781 -20.804688 0.5 -21.269531 0.5 -21.84375 C 0.5 -22.414062 0.550781 -22.875 0.65625 -23.21875 C 0.769531 -23.5625 0.957031 -23.796875 1.21875 -23.921875 C 1.613281 -24.117188 2.175781 -24.21875 2.90625 -24.21875 Z M 2.90625 -24.21875 "/></g></g></g><g fill="#071658" fill-opacity="1"><g transform="translate(196.138215, 215.209555)"><g><path d="M 6.4375 -23.5 C 6.8125 -23.125 7 -22.484375 7 -21.578125 L 7 -21.046875 C 7 -20.503906 6.976562 -20.097656 6.9375 -19.828125 C 6.78125 -17.890625 6.207031 -16.226562 5.21875 -14.84375 C 4.226562 -13.457031 2.972656 -12.765625 1.453125 -12.765625 C 1.296875 -12.765625 1.15625 -12.878906 1.03125 -13.109375 C 0.914062 -13.347656 0.859375 -13.65625 0.859375 -14.03125 C 0.859375 -14.40625 0.90625 -14.695312 1 -14.90625 C 1.101562 -15.113281 1.210938 -15.234375 1.328125 -15.265625 C 1.453125 -15.296875 1.546875 -15.316406 1.609375 -15.328125 C 1.679688 -15.335938 1.804688 -15.390625 1.984375 -15.484375 C 2.160156 -15.585938 2.3125 -15.726562 2.4375 -15.90625 C 2.789062 -16.363281 2.988281 -17.078125 3.03125 -18.046875 C 2.28125 -18.160156 1.722656 -18.40625 1.359375 -18.78125 C 1.003906 -19.15625 0.828125 -19.945312 0.828125 -21.15625 C 0.828125 -22.03125 0.9375 -22.679688 1.15625 -23.109375 C 1.375 -23.546875 1.707031 -23.832031 2.15625 -23.96875 C 2.613281 -24.113281 3.3125 -24.1875 4.25 -24.1875 C 5.195312 -24.1875 5.925781 -23.957031 6.4375 -23.5 Z M 6.4375 -23.5 "/></g></g></g><g fill="#071658" fill-opacity="1"><g transform="translate(208.480198, 215.209555)"><g><path d="M 16.9375 -23.1875 C 17.15625 -23.570312 17.472656 -23.828125 17.890625 -23.953125 C 18.304688 -24.085938 18.828125 -24.15625 19.453125 -24.15625 C 20.078125 -24.15625 20.582031 -24.097656 20.96875 -23.984375 C 21.351562 -23.878906 21.640625 -23.75 21.828125 -23.59375 C 22.015625 -23.4375 22.148438 -23.207031 22.234375 -22.90625 C 22.367188 -22.550781 22.4375 -21.988281 22.4375 -21.21875 L 22.4375 -2.90625 C 22.4375 -2.375 22.421875 -1.988281 22.390625 -1.75 C 22.359375 -1.507812 22.253906 -1.222656 22.078125 -0.890625 C 21.765625 -0.296875 20.90625 0 19.5 0 C 18.644531 0 18.050781 -0.0625 17.71875 -0.1875 C 17.382812 -0.320312 17.109375 -0.535156 16.890625 -0.828125 C 11.941406 -7.421875 8.6875 -11.734375 7.125 -13.765625 L 7.125 -2.90625 C 7.125 -2.375 7.109375 -1.988281 7.078125 -1.75 C 7.046875 -1.507812 6.941406 -1.222656 6.765625 -0.890625 C 6.453125 -0.296875 5.59375 0 4.1875 0 C 2.820312 0 1.988281 -0.296875 1.6875 -0.890625 C 1.507812 -1.222656 1.398438 -1.519531 1.359375 -1.78125 C 1.328125 -2.039062 1.3125 -2.425781 1.3125 -2.9375 L 1.3125 -21.34375 C 1.3125 -22.1875 1.414062 -22.800781 1.625 -23.1875 C 1.84375 -23.570312 2.160156 -23.828125 2.578125 -23.953125 C 2.992188 -24.085938 3.53125 -24.15625 4.1875 -24.15625 C 4.851562 -24.15625 5.378906 -24.09375 5.765625 -23.96875 C 6.148438 -23.851562 6.414062 -23.71875 6.5625 -23.5625 C 6.65625 -23.5 6.910156 -23.210938 7.328125 -22.703125 C 11.960938 -16.390625 15.0625 -12.222656 16.625 -10.203125 L 16.625 -21.34375 C 16.625 -22.1875 16.726562 -22.800781 16.9375 -23.1875 Z M 16.9375 -23.1875 "/></g></g></g><g fill="#071658" fill-opacity="1"><g transform="translate(236.761146, 215.209555)"><g><path d="M 7.15625 -5.84375 L 17.328125 -5.84375 C 17.828125 -5.84375 18.203125 -5.820312 18.453125 -5.78125 C 18.710938 -5.75 19.007812 -5.648438 19.34375 -5.484375 C 19.9375 -5.171875 20.234375 -4.3125 20.234375 -2.90625 C 20.234375 -1.363281 19.828125 -0.460938 19.015625 -0.203125 C 18.640625 -0.0664062 18.066406 0 17.296875 0 L 4.21875 0 C 2.675781 0 1.773438 -0.414062 1.515625 -1.25 C 1.378906 -1.601562 1.3125 -2.164062 1.3125 -2.9375 L 1.3125 -21.28125 C 1.3125 -22.40625 1.519531 -23.171875 1.9375 -23.578125 C 2.363281 -23.984375 3.160156 -24.1875 4.328125 -24.1875 L 17.328125 -24.1875 C 17.828125 -24.1875 18.203125 -24.171875 18.453125 -24.140625 C 18.710938 -24.109375 19.007812 -24.003906 19.34375 -23.828125 C 19.9375 -23.515625 20.234375 -22.65625 20.234375 -21.25 C 20.234375 -19.707031 19.828125 -18.804688 19.015625 -18.546875 C 18.640625 -18.410156 18.066406 -18.34375 17.296875 -18.34375 L 7.15625 -18.34375 L 7.15625 -15.015625 L 13.6875 -15.015625 C 14.195312 -15.015625 14.578125 -15 14.828125 -14.96875 C 15.085938 -14.9375 15.378906 -14.832031 15.703125 -14.65625 C 16.296875 -14.34375 16.59375 -13.484375 16.59375 -12.078125 C 16.59375 -10.535156 16.175781 -9.632812 15.34375 -9.375 C 14.96875 -9.238281 14.394531 -9.171875 13.625 -9.171875 L 7.15625 -9.171875 Z M 7.15625 -5.84375 "/></g></g></g><g fill="#071658" fill-opacity="1"><g transform="translate(262.336103, 215.209555)"><g><path d="M 1.6875 -3.40625 C 1.113281 -4.101562 0.828125 -4.734375 0.828125 -5.296875 C 0.828125 -5.859375 1.300781 -6.601562 2.25 -7.53125 C 2.789062 -8.050781 3.367188 -8.3125 3.984375 -8.3125 C 4.609375 -8.3125 5.46875 -7.765625 6.5625 -6.671875 C 6.875 -6.296875 7.316406 -5.9375 7.890625 -5.59375 C 8.460938 -5.25 8.988281 -5.078125 9.46875 -5.078125 C 11.519531 -5.078125 12.546875 -5.914062 12.546875 -7.59375 C 12.546875 -8.09375 12.265625 -8.515625 11.703125 -8.859375 C 11.140625 -9.203125 10.4375 -9.445312 9.59375 -9.59375 C 8.757812 -9.75 7.859375 -10 6.890625 -10.34375 C 5.921875 -10.6875 5.019531 -11.085938 4.1875 -11.546875 C 3.351562 -12.015625 2.65625 -12.75 2.09375 -13.75 C 1.53125 -14.75 1.25 -15.953125 1.25 -17.359375 C 1.25 -19.296875 1.96875 -20.984375 3.40625 -22.421875 C 4.851562 -23.859375 6.820312 -24.578125 9.3125 -24.578125 C 10.625 -24.578125 11.820312 -24.40625 12.90625 -24.0625 C 14 -23.726562 14.757812 -23.382812 15.1875 -23.03125 L 16 -22.40625 C 16.6875 -21.769531 17.03125 -21.226562 17.03125 -20.78125 C 17.03125 -20.34375 16.765625 -19.738281 16.234375 -18.96875 C 15.484375 -17.875 14.710938 -17.328125 13.921875 -17.328125 C 13.460938 -17.328125 12.890625 -17.546875 12.203125 -17.984375 C 12.140625 -18.023438 12.015625 -18.132812 11.828125 -18.3125 C 11.640625 -18.488281 11.46875 -18.632812 11.3125 -18.75 C 10.851562 -19.03125 10.265625 -19.171875 9.546875 -19.171875 C 8.835938 -19.171875 8.242188 -19 7.765625 -18.65625 C 7.296875 -18.320312 7.0625 -17.847656 7.0625 -17.234375 C 7.0625 -16.628906 7.34375 -16.140625 7.90625 -15.765625 C 8.46875 -15.398438 9.164062 -15.148438 10 -15.015625 C 10.832031 -14.878906 11.742188 -14.671875 12.734375 -14.390625 C 13.722656 -14.117188 14.632812 -13.785156 15.46875 -13.390625 C 16.3125 -12.992188 17.007812 -12.304688 17.5625 -11.328125 C 18.125 -10.347656 18.40625 -9.144531 18.40625 -7.71875 C 18.40625 -6.289062 18.117188 -5.03125 17.546875 -3.9375 C 16.984375 -2.851562 16.238281 -2.015625 15.3125 -1.421875 C 13.53125 -0.253906 11.628906 0.328125 9.609375 0.328125 C 8.566406 0.328125 7.582031 0.203125 6.65625 -0.046875 C 5.738281 -0.296875 4.992188 -0.609375 4.421875 -0.984375 C 3.253906 -1.691406 2.441406 -2.375 1.984375 -3.03125 Z M 1.6875 -3.40625 "/></g></g></g><g fill="#071658" fill-opacity="1"><g transform="translate(286.096061, 215.209555)"><g><path d="M 2.90625 -24.21875 L 21.25 -24.21875 C 21.957031 -24.21875 22.472656 -24.132812 22.796875 -23.96875 C 23.128906 -23.8125 23.347656 -23.554688 23.453125 -23.203125 C 23.566406 -22.847656 23.625 -22.382812 23.625 -21.8125 C 23.625 -21.238281 23.566406 -20.78125 23.453125 -20.4375 C 23.347656 -20.101562 23.164062 -19.867188 22.90625 -19.734375 C 22.507812 -19.535156 21.945312 -19.4375 21.21875 -19.4375 L 14.921875 -19.4375 L 14.921875 -2.84375 C 14.921875 -2.332031 14.898438 -1.957031 14.859375 -1.71875 C 14.828125 -1.476562 14.726562 -1.195312 14.5625 -0.875 C 14.40625 -0.550781 14.113281 -0.320312 13.6875 -0.1875 C 13.269531 -0.0625 12.71875 0 12.03125 0 C 11.351562 0 10.8125 -0.0625 10.40625 -0.1875 C 10 -0.320312 9.710938 -0.550781 9.546875 -0.875 C 9.390625 -1.195312 9.289062 -1.484375 9.25 -1.734375 C 9.21875 -1.984375 9.203125 -2.363281 9.203125 -2.875 L 9.203125 -19.4375 L 2.875 -19.4375 C 2.164062 -19.4375 1.644531 -19.519531 1.3125 -19.6875 C 0.988281 -19.851562 0.769531 -20.109375 0.65625 -20.453125 C 0.550781 -20.804688 0.5 -21.269531 0.5 -21.84375 C 0.5 -22.414062 0.550781 -22.875 0.65625 -23.21875 C 0.769531 -23.5625 0.957031 -23.796875 1.21875 -23.921875 C 1.613281 -24.117188 2.175781 -24.21875 2.90625 -24.21875 Z M 2.90625 -24.21875 "/></g></g></g><g fill="#071658" fill-opacity="1"><g transform="translate(88.2944, 235.240591)"><g><path d="M 1.90625 -2.203125 L 1.90625 0 L 0.546875 0 L 0.546875 -6.1875 L 2.859375 -6.1875 C 3.191406 -6.1875 3.503906 -6.101562 3.796875 -5.9375 C 4.085938 -5.769531 4.316406 -5.535156 4.484375 -5.234375 C 4.660156 -4.941406 4.75 -4.597656 4.75 -4.203125 C 4.75 -3.859375 4.6875 -3.550781 4.5625 -3.28125 C 4.4375 -3.007812 4.265625 -2.789062 4.046875 -2.625 C 3.835938 -2.457031 3.601562 -2.34375 3.34375 -2.28125 L 5.125 0 L 3.390625 0 L 1.921875 -2.203125 Z M 2.640625 -5.109375 L 1.90625 -5.109375 L 1.90625 -3.28125 L 2.640625 -3.28125 C 2.835938 -3.28125 3.019531 -3.359375 3.1875 -3.515625 C 3.363281 -3.671875 3.453125 -3.898438 3.453125 -4.203125 C 3.453125 -4.484375 3.363281 -4.703125 3.1875 -4.859375 C 3.019531 -5.023438 2.835938 -5.109375 2.640625 -5.109375 Z M 2.640625 -5.109375 "/></g></g></g><g fill="#071658" fill-opacity="1"><g transform="translate(100.588305, 235.240591)"><g><path d="M 4.125 -1.234375 L 4.125 0 L 0.546875 0 L 0.546875 -6.1875 L 4.125 -6.1875 L 4.125 -4.953125 L 1.90625 -4.953125 L 1.90625 -3.71875 L 4.03125 -3.71875 L 4.03125 -2.484375 L 1.90625 -2.484375 L 1.90625 -1.234375 Z M 4.125 -1.234375 "/></g></g></g><g fill="#071658" fill-opacity="1"><g transform="translate(112.545515, 235.240591)"><g><path d="M 3.90625 -2.359375 L 3.125 -4.5625 L 2.34375 -2.359375 Z M 6.21875 0 L 4.75 0 L 4.3125 -1.25 L 1.953125 -1.25 L 1.515625 0 L 0.046875 0 L 2.5625 -6.1875 L 3.703125 -6.1875 Z M 6.21875 0 "/></g></g></g><g fill="#071658" fill-opacity="1"><g transform="translate(126.095201, 235.240591)"><g><path d="M 0.546875 0 L 0.546875 -6.1875 L 1.90625 -6.1875 L 1.90625 -1.234375 L 4.125 -1.234375 L 4.125 0 Z M 0.546875 0 "/></g></g></g><g fill="#071658" fill-opacity="1"><g transform="translate(137.824912, 235.240591)"><g/></g></g><g fill="#071658" fill-opacity="1"><g transform="translate(147.379743, 235.240591)"><g><path d="M 4.125 -1.234375 L 4.125 0 L 0.546875 0 L 0.546875 -6.1875 L 4.125 -6.1875 L 4.125 -4.953125 L 1.90625 -4.953125 L 1.90625 -3.71875 L 4.03125 -3.71875 L 4.03125 -2.484375 L 1.90625 -2.484375 L 1.90625 -1.234375 Z M 4.125 -1.234375 "/></g></g></g><g fill="#071658" fill-opacity="1"><g transform="translate(159.336952, 235.240591)"><g><path d="M 2.953125 -0.96875 C 3.097656 -0.96875 3.253906 -0.988281 3.421875 -1.03125 C 3.585938 -1.070312 3.734375 -1.144531 3.859375 -1.25 C 3.984375 -1.363281 4.046875 -1.507812 4.046875 -1.6875 C 4.046875 -1.863281 3.976562 -2 3.84375 -2.09375 C 3.71875 -2.195312 3.546875 -2.28125 3.328125 -2.34375 C 3.117188 -2.414062 2.890625 -2.476562 2.640625 -2.53125 C 2.390625 -2.59375 2.132812 -2.664062 1.875 -2.75 C 1.625 -2.832031 1.390625 -2.941406 1.171875 -3.078125 C 0.960938 -3.210938 0.789062 -3.382812 0.65625 -3.59375 C 0.53125 -3.800781 0.46875 -4.070312 0.46875 -4.40625 C 0.46875 -4.726562 0.535156 -5.003906 0.671875 -5.234375 C 0.804688 -5.460938 0.984375 -5.65625 1.203125 -5.8125 C 1.421875 -5.96875 1.664062 -6.082031 1.9375 -6.15625 C 2.21875 -6.238281 2.5 -6.28125 2.78125 -6.28125 C 3.207031 -6.28125 3.601562 -6.210938 3.96875 -6.078125 C 4.34375 -5.941406 4.644531 -5.726562 4.875 -5.4375 C 5.113281 -5.15625 5.238281 -4.773438 5.25 -4.296875 L 3.921875 -4.296875 C 3.890625 -4.617188 3.78125 -4.84375 3.59375 -4.96875 C 3.40625 -5.09375 3.140625 -5.15625 2.796875 -5.15625 C 2.671875 -5.15625 2.535156 -5.132812 2.390625 -5.09375 C 2.253906 -5.050781 2.132812 -4.984375 2.03125 -4.890625 C 1.925781 -4.796875 1.875 -4.671875 1.875 -4.515625 C 1.875 -4.359375 1.941406 -4.234375 2.078125 -4.140625 C 2.210938 -4.046875 2.382812 -3.96875 2.59375 -3.90625 C 2.800781 -3.84375 3.03125 -3.785156 3.28125 -3.734375 C 3.539062 -3.679688 3.796875 -3.613281 4.046875 -3.53125 C 4.296875 -3.457031 4.523438 -3.351562 4.734375 -3.21875 C 4.953125 -3.082031 5.125 -2.90625 5.25 -2.6875 C 5.382812 -2.46875 5.453125 -2.1875 5.453125 -1.84375 C 5.453125 -1.476562 5.378906 -1.164062 5.234375 -0.90625 C 5.085938 -0.65625 4.890625 -0.453125 4.640625 -0.296875 C 4.398438 -0.148438 4.125 -0.0390625 3.8125 0.03125 C 3.507812 0.101562 3.203125 0.140625 2.890625 0.140625 C 2.429688 0.140625 2.003906 0.0664062 1.609375 -0.078125 C 1.210938 -0.234375 0.890625 -0.472656 0.640625 -0.796875 C 0.398438 -1.117188 0.273438 -1.53125 0.265625 -2.03125 L 1.65625 -2.03125 C 1.675781 -1.664062 1.8125 -1.394531 2.0625 -1.21875 C 2.320312 -1.050781 2.617188 -0.96875 2.953125 -0.96875 Z M 2.953125 -0.96875 "/></g></g></g><g fill="#071658" fill-opacity="1"><g transform="translate(172.349751, 235.240591)"><g><path d="M 3.171875 -4.953125 L 3.171875 0 L 1.8125 0 L 1.8125 -4.953125 L 0.046875 -4.953125 L 0.046875 -6.1875 L 4.9375 -6.1875 L 4.9375 -4.953125 Z M 3.171875 -4.953125 "/></g></g></g><g fill="#071658" fill-opacity="1"><g transform="translate(184.616358, 235.240591)"><g><path d="M 3.90625 -2.359375 L 3.125 -4.5625 L 2.34375 -2.359375 Z M 6.21875 0 L 4.75 0 L 4.3125 -1.25 L 1.953125 -1.25 L 1.515625 0 L 0.046875 0 L 2.5625 -6.1875 L 3.703125 -6.1875 Z M 6.21875 0 "/></g></g></g><g fill="#071658" fill-opacity="1"><g transform="translate(198.166042, 235.240591)"><g><path d="M 3.171875 -4.953125 L 3.171875 0 L 1.8125 0 L 1.8125 -4.953125 L 0.046875 -4.953125 L 0.046875 -6.1875 L 4.9375 -6.1875 L 4.9375 -4.953125 Z M 3.171875 -4.953125 "/></g></g></g><g fill="#071658" fill-opacity="1"><g transform="translate(210.432654, 235.240591)"><g><path d="M 4.125 -1.234375 L 4.125 0 L 0.546875 0 L 0.546875 -6.1875 L 4.125 -6.1875 L 4.125 -4.953125 L 1.90625 -4.953125 L 1.90625 -3.71875 L 4.03125 -3.71875 L 4.03125 -2.484375 L 1.90625 -2.484375 L 1.90625 -1.234375 Z M 4.125 -1.234375 "/></g></g></g></svg>